<svg width="311" height="61" viewBox="0 0 311 61" fill="none" xmlns="http://www.w3.org/2000/svg">
<path d="M13.536 7.008C15.096 7.008 16.356 7.248 17.316 7.728C18.276 8.184 19.176 8.724 20.016 9.348C20.328 9.588 20.568 9.708 20.736 9.708C21.192 9.708 21.492 8.976 21.636 7.512H22.464C22.416 8.4 22.38 9.48 22.356 10.752C22.332 12.024 22.32 13.704 22.32 15.792H21.492C21.324 14.784 21.12 13.812 20.88 12.876C20.64 11.94 20.244 11.136 19.692 10.464C18.996 9.576 18.084 8.892 16.956 8.412C15.828 7.908 14.664 7.656 13.464 7.656C12.264 7.656 11.172 7.956 10.188 8.556C9.228 9.132 8.4 9.972 7.704 11.076C7.008 12.18 6.468 13.512 6.084 15.072C5.724 16.608 5.544 18.348 5.544 20.292C5.544 24.612 6.24 27.78 7.632 29.796C9.024 31.788 11.184 32.784 14.112 32.784C14.976 32.784 15.72 32.664 16.344 32.424C16.992 32.16 17.496 31.908 17.856 31.668C18.312 31.356 18.6 31.068 18.72 30.804C18.84 30.516 18.9 30.144 18.9 29.688V26.232C18.9 25.248 18.804 24.516 18.612 24.036C18.42 23.556 18.06 23.232 17.532 23.064C17.028 22.896 16.272 22.8 15.264 22.776V22.056C15.696 22.08 16.2 22.104 16.776 22.128C17.352 22.128 17.952 22.14 18.576 22.164C19.224 22.164 19.812 22.164 20.34 22.164C21.132 22.164 21.84 22.152 22.464 22.128C23.112 22.104 23.652 22.08 24.084 22.056V22.776C23.556 22.8 23.16 22.884 22.896 23.028C22.632 23.172 22.452 23.46 22.356 23.892C22.284 24.324 22.248 24.984 22.248 25.872V33H21.528C21.504 32.592 21.408 32.148 21.24 31.668C21.096 31.188 20.868 30.948 20.556 30.948C20.412 30.948 20.268 30.984 20.124 31.056C19.98 31.128 19.728 31.296 19.368 31.56C18.576 32.16 17.736 32.64 16.848 33C15.96 33.336 14.928 33.504 13.752 33.504C11.28 33.504 9.156 33 7.38 31.992C5.628 30.96 4.284 29.484 3.348 27.564C2.412 25.644 1.944 23.352 1.944 20.688C1.944 17.88 2.448 15.456 3.456 13.416C4.464 11.376 5.832 9.804 7.56 8.7C9.312 7.572 11.304 7.008 13.536 7.008ZM31.9047 4.776V29.652C31.9047 30.66 32.1087 31.344 32.5167 31.704C32.9487 32.064 33.6567 32.244 34.6407 32.244V33C34.2327 32.976 33.6087 32.952 32.7687 32.928C31.9527 32.88 31.1247 32.856 30.2847 32.856C29.4687 32.856 28.6407 32.88 27.8007 32.928C26.9607 32.952 26.3367 32.976 25.9287 33V32.244C26.9127 32.244 27.6087 32.064 28.0167 31.704C28.4487 31.344 28.6647 30.66 28.6647 29.652V9.096C28.6647 8.016 28.4727 7.224 28.0887 6.72C27.7047 6.192 26.9847 5.928 25.9287 5.928V5.172C26.6967 5.244 27.4407 5.28 28.1607 5.28C28.8567 5.28 29.5167 5.244 30.1407 5.172C30.7887 5.076 31.3767 4.944 31.9047 4.776ZM44.9499 13.956C46.4859 13.956 47.8659 14.292 49.0899 14.964C50.3139 15.636 51.2859 16.692 52.0059 18.132C52.7499 19.572 53.1219 21.444 53.1219 23.748C53.1219 26.052 52.7499 27.924 52.0059 29.364C51.2859 30.78 50.3139 31.824 49.0899 32.496C47.8659 33.168 46.4859 33.504 44.9499 33.504C43.4379 33.504 42.0579 33.168 40.8099 32.496C39.5859 31.824 38.6019 30.78 37.8579 29.364C37.1379 27.924 36.7779 26.052 36.7779 23.748C36.7779 21.444 37.1379 19.572 37.8579 18.132C38.6019 16.692 39.5859 15.636 40.8099 14.964C42.0579 14.292 43.4379 13.956 44.9499 13.956ZM44.9499 14.676C43.5819 14.676 42.4539 15.384 41.5659 16.8C40.7019 18.216 40.2699 20.532 40.2699 23.748C40.2699 26.964 40.7019 29.28 41.5659 30.696C42.4539 32.088 43.5819 32.784 44.9499 32.784C46.3179 32.784 47.4339 32.088 48.2979 30.696C49.1859 29.28 49.6299 26.964 49.6299 23.748C49.6299 20.532 49.1859 18.216 48.2979 16.8C47.4339 15.384 46.3179 14.676 44.9499 14.676ZM62.4105 14.46V15.216C61.8105 15.216 61.2825 15.264 60.8265 15.36C60.3705 15.432 60.0705 15.672 59.9265 16.08C59.7825 16.488 59.8905 17.208 60.2505 18.24L63.9945 28.968L63.7425 28.932L69.0345 14.316L69.7545 14.604L63.1665 33.18C63.0705 33.18 62.9745 33.18 62.8785 33.18C62.7825 33.18 62.6745 33.18 62.5545 33.18L56.6505 17.232C56.2665 16.272 55.8825 15.696 55.4985 15.504C55.1385 15.312 54.8265 15.216 54.5625 15.216V14.46C55.0425 14.532 55.5345 14.592 56.0385 14.64C56.5665 14.664 57.1305 14.676 57.7305 14.676C58.4745 14.676 59.2545 14.652 60.0705 14.604C60.9105 14.556 61.6905 14.508 62.4105 14.46ZM82.1745 14.46V15.18C81.7185 15.228 81.2865 15.432 80.8785 15.792C80.4945 16.128 80.1465 16.764 79.8345 17.7L74.6145 33.18C74.5185 33.18 74.4225 33.18 74.3265 33.18C74.2305 33.18 74.1225 33.18 74.0025 33.18L68.2065 18.456L69.0345 14.316C69.1785 14.316 69.3105 14.316 69.4305 14.316C69.5745 14.316 69.7185 14.316 69.8625 14.316L75.4785 29.184L75.1905 29.4L78.7545 18.564C79.0185 17.748 79.1145 17.112 79.0425 16.656C78.9945 16.176 78.7545 15.828 78.3225 15.612C77.9145 15.372 77.2785 15.228 76.4145 15.18V14.46C76.8465 14.484 77.2185 14.508 77.5305 14.532C77.8425 14.532 78.1425 14.544 78.4305 14.568C78.7425 14.568 79.0785 14.568 79.4385 14.568C79.9905 14.568 80.4825 14.556 80.9145 14.532C81.3705 14.508 81.7905 14.484 82.1745 14.46ZM91.4816 7.116C92.6816 7.116 93.5936 7.26 94.2176 7.548C94.8416 7.812 95.3936 8.112 95.8736 8.448C96.1616 8.616 96.3896 8.748 96.5576 8.844C96.7496 8.916 96.9296 8.952 97.0976 8.952C97.3376 8.952 97.5056 8.82 97.6016 8.556C97.7216 8.292 97.8176 7.896 97.8896 7.368H98.7176C98.6936 7.776 98.6576 8.268 98.6096 8.844C98.5856 9.396 98.5616 10.14 98.5376 11.076C98.5376 11.988 98.5376 13.2 98.5376 14.712H97.7096C97.6376 13.56 97.3856 12.456 96.9536 11.4C96.5216 10.344 95.8856 9.48 95.0456 8.808C94.2296 8.136 93.1496 7.8 91.8056 7.8C90.5336 7.8 89.4776 8.184 88.6376 8.952C87.8216 9.72 87.4136 10.728 87.4136 11.976C87.4136 13.056 87.6896 13.968 88.2416 14.712C88.7936 15.432 89.5256 16.092 90.4376 16.692C91.3736 17.268 92.3816 17.892 93.4616 18.564C94.7096 19.332 95.8136 20.1 96.7736 20.868C97.7576 21.612 98.5256 22.44 99.0776 23.352C99.6536 24.264 99.9416 25.368 99.9416 26.664C99.9416 28.2 99.5936 29.472 98.8976 30.48C98.2016 31.488 97.2776 32.244 96.1256 32.748C94.9736 33.252 93.7016 33.504 92.3096 33.504C91.0376 33.504 90.0296 33.36 89.2856 33.072C88.5416 32.784 87.9056 32.484 87.3776 32.172C86.8496 31.836 86.4416 31.668 86.1536 31.668C85.9136 31.668 85.7336 31.8 85.6136 32.064C85.5176 32.328 85.4336 32.724 85.3616 33.252H84.5336C84.5816 32.748 84.6056 32.16 84.6056 31.488C84.6296 30.792 84.6416 29.892 84.6416 28.788C84.6656 27.684 84.6776 26.292 84.6776 24.612H85.5056C85.6016 26.052 85.8656 27.396 86.2976 28.644C86.7536 29.892 87.4376 30.9 88.3496 31.668C89.2856 32.412 90.5216 32.784 92.0576 32.784C92.8496 32.784 93.5936 32.628 94.2896 32.316C95.0096 31.98 95.5976 31.464 96.0536 30.768C96.5096 30.048 96.7376 29.124 96.7376 27.996C96.7376 27.012 96.4976 26.16 96.0176 25.44C95.5616 24.696 94.9136 24.012 94.0736 23.388C93.2336 22.74 92.2496 22.08 91.1216 21.408C89.9936 20.712 88.9376 20.004 87.9536 19.284C86.9696 18.564 86.1776 17.736 85.5776 16.8C85.0016 15.84 84.7136 14.688 84.7136 13.344C84.7136 11.928 85.0256 10.764 85.6496 9.852C86.2976 8.916 87.1376 8.232 88.1696 7.8C89.2016 7.344 90.3056 7.116 91.4816 7.116ZM108.403 4.776V29.652C108.403 30.66 108.583 31.344 108.943 31.704C109.303 32.064 109.915 32.244 110.779 32.244V33C110.395 32.976 109.819 32.952 109.051 32.928C108.307 32.88 107.551 32.856 106.783 32.856C105.967 32.856 105.139 32.88 104.299 32.928C103.459 32.952 102.835 32.976 102.427 33V32.244C103.411 32.244 104.107 32.064 104.515 31.704C104.947 31.344 105.163 30.66 105.163 29.652V9.096C105.163 8.016 104.971 7.224 104.587 6.72C104.203 6.192 103.483 5.928 102.427 5.928V5.172C103.195 5.244 103.939 5.28 104.659 5.28C105.355 5.28 106.015 5.244 106.639 5.172C107.287 5.076 107.875 4.944 108.403 4.776ZM119.851 14.46V15.18C119.251 15.228 118.687 15.396 118.159 15.684C117.631 15.948 117.115 16.344 116.611 16.872L111.535 22.2L112.039 21.192L118.735 30.372C119.143 30.924 119.527 31.356 119.887 31.668C120.271 31.98 120.727 32.172 121.255 32.244V33C120.991 32.976 120.571 32.952 119.995 32.928C119.443 32.88 118.891 32.856 118.339 32.856C117.595 32.856 116.839 32.88 116.071 32.928C115.303 32.952 114.727 32.976 114.343 33V32.244C114.823 32.244 115.159 32.124 115.351 31.884C115.543 31.644 115.507 31.356 115.243 31.02L111.103 24.972C110.647 24.324 110.227 23.904 109.843 23.712C109.483 23.52 108.955 23.412 108.259 23.388V22.668C109.027 22.572 109.651 22.416 110.131 22.2C110.611 21.96 111.067 21.612 111.499 21.156L114.163 18.384C114.931 17.592 115.315 16.968 115.315 16.512C115.315 16.032 115.063 15.696 114.559 15.504C114.079 15.288 113.443 15.18 112.651 15.18V14.46C113.275 14.484 113.971 14.52 114.739 14.568C115.531 14.592 116.191 14.604 116.719 14.604C117.127 14.604 117.523 14.604 117.907 14.604C118.291 14.58 118.651 14.556 118.987 14.532C119.323 14.508 119.611 14.484 119.851 14.46ZM126.648 5.46C127.272 5.46 127.812 5.688 128.268 6.144C128.724 6.6 128.952 7.14 128.952 7.764C128.952 8.388 128.724 8.928 128.268 9.384C127.812 9.84 127.272 10.068 126.648 10.068C126.024 10.068 125.484 9.84 125.028 9.384C124.572 8.928 124.344 8.388 124.344 7.764C124.344 7.14 124.572 6.6 125.028 6.144C125.484 5.688 126.024 5.46 126.648 5.46ZM128.52 14.064V29.652C128.52 30.66 128.724 31.344 129.132 31.704C129.564 32.064 130.272 32.244 131.256 32.244V33C130.848 32.976 130.224 32.952 129.384 32.928C128.568 32.88 127.74 32.856 126.9 32.856C126.084 32.856 125.256 32.88 124.416 32.928C123.576 32.952 122.952 32.976 122.544 33V32.244C123.528 32.244 124.224 32.064 124.632 31.704C125.064 31.344 125.28 30.66 125.28 29.652V18.384C125.28 17.304 125.088 16.512 124.704 16.008C124.32 15.48 123.6 15.216 122.544 15.216V14.46C123.312 14.532 124.056 14.568 124.776 14.568C125.472 14.568 126.132 14.532 126.756 14.46C127.404 14.364 127.992 14.232 128.52 14.064ZM145.187 13.956C146.099 13.956 146.855 14.076 147.455 14.316C148.079 14.556 148.595 14.892 149.003 15.324C149.459 15.804 149.783 16.404 149.975 17.124C150.167 17.844 150.263 18.816 150.263 20.04V29.652C150.263 30.66 150.467 31.344 150.875 31.704C151.307 32.064 152.015 32.244 152.999 32.244V33C152.591 32.976 151.967 32.952 151.127 32.928C150.287 32.88 149.471 32.856 148.679 32.856C147.887 32.856 147.107 32.88 146.339 32.928C145.595 32.952 145.031 32.976 144.647 33V32.244C145.511 32.244 146.123 32.064 146.483 31.704C146.843 31.344 147.023 30.66 147.023 29.652V19.248C147.023 18.504 146.963 17.82 146.843 17.196C146.723 16.572 146.447 16.068 146.015 15.684C145.607 15.3 144.971 15.108 144.107 15.108C143.099 15.108 142.211 15.396 141.443 15.972C140.699 16.548 140.111 17.34 139.679 18.348C139.271 19.332 139.067 20.436 139.067 21.66V29.652C139.067 30.66 139.247 31.344 139.607 31.704C139.967 32.064 140.579 32.244 141.443 32.244V33C141.059 32.976 140.483 32.952 139.715 32.928C138.971 32.88 138.203 32.856 137.411 32.856C136.619 32.856 135.803 32.88 134.963 32.928C134.123 32.952 133.499 32.976 133.091 33V32.244C134.075 32.244 134.771 32.064 135.179 31.704C135.611 31.344 135.827 30.66 135.827 29.652V18.384C135.827 17.304 135.635 16.512 135.251 16.008C134.867 15.48 134.147 15.216 133.091 15.216V14.46C133.859 14.532 134.603 14.568 135.323 14.568C136.019 14.568 136.679 14.532 137.303 14.46C137.951 14.364 138.539 14.232 139.067 14.064V18.312C139.691 16.68 140.555 15.552 141.659 14.928C142.787 14.28 143.963 13.956 145.187 13.956ZM186.612 7.512V8.232C185.796 8.256 185.172 8.376 184.74 8.592C184.332 8.808 184.056 9.156 183.912 9.636C183.768 10.116 183.696 10.8 183.696 11.688V33.18C183.552 33.18 183.408 33.18 183.264 33.18C183.144 33.18 183.012 33.18 182.868 33.18L167.748 9.816V28.824C167.748 29.688 167.82 30.372 167.964 30.876C168.132 31.356 168.444 31.704 168.9 31.92C169.38 32.112 170.088 32.232 171.024 32.28V33C170.592 32.952 170.028 32.928 169.332 32.928C168.636 32.904 167.976 32.892 167.352 32.892C166.752 32.892 166.14 32.904 165.516 32.928C164.916 32.928 164.412 32.952 164.004 33V32.28C164.82 32.232 165.432 32.112 165.84 31.92C166.272 31.704 166.56 31.356 166.704 30.876C166.848 30.372 166.92 29.688 166.92 28.824V11.328C166.92 10.44 166.848 9.792 166.704 9.384C166.56 8.952 166.272 8.664 165.84 8.52C165.432 8.352 164.82 8.256 164.004 8.232V7.512C164.412 7.536 164.916 7.56 165.516 7.584C166.14 7.608 166.752 7.62 167.352 7.62C167.88 7.62 168.384 7.608 168.864 7.584C169.344 7.56 169.776 7.536 170.16 7.512L182.868 27.096V11.688C182.868 10.8 182.784 10.116 182.616 9.636C182.472 9.156 182.16 8.808 181.68 8.592C181.224 8.376 180.528 8.256 179.592 8.232V7.512C180.024 7.536 180.588 7.56 181.284 7.584C182.004 7.608 182.664 7.62 183.264 7.62C183.888 7.62 184.5 7.608 185.1 7.584C185.724 7.56 186.228 7.536 186.612 7.512ZM193.293 33.252C192.309 33.252 191.457 33.072 190.737 32.712C190.017 32.328 189.465 31.8 189.081 31.128C188.721 30.456 188.541 29.676 188.541 28.788C188.541 27.732 188.781 26.868 189.261 26.196C189.765 25.524 190.401 24.984 191.169 24.576C191.937 24.168 192.741 23.832 193.581 23.568C194.445 23.28 195.261 23.016 196.029 22.776C196.797 22.512 197.421 22.212 197.901 21.876C198.405 21.54 198.657 21.096 198.657 20.544V18.312C198.657 17.304 198.501 16.536 198.189 16.008C197.901 15.48 197.505 15.132 197.001 14.964C196.497 14.772 195.933 14.676 195.309 14.676C194.709 14.676 194.061 14.76 193.365 14.928C192.693 15.096 192.153 15.444 191.745 15.972C192.201 16.068 192.597 16.308 192.933 16.692C193.269 17.076 193.437 17.568 193.437 18.168C193.437 18.768 193.245 19.248 192.861 19.608C192.477 19.944 191.985 20.112 191.385 20.112C190.689 20.112 190.173 19.896 189.837 19.464C189.525 19.008 189.369 18.504 189.369 17.952C189.369 17.328 189.525 16.824 189.837 16.44C190.149 16.056 190.545 15.696 191.025 15.36C191.577 14.976 192.285 14.652 193.149 14.388C194.037 14.1 195.033 13.956 196.137 13.956C197.121 13.956 197.961 14.076 198.657 14.316C199.353 14.532 199.929 14.856 200.385 15.288C201.009 15.864 201.417 16.572 201.609 17.412C201.801 18.228 201.897 19.212 201.897 20.364V30.372C201.897 30.972 201.981 31.404 202.149 31.668C202.341 31.932 202.629 32.064 203.013 32.064C203.277 32.064 203.529 32.004 203.769 31.884C204.009 31.764 204.297 31.572 204.633 31.308L205.029 31.92C204.525 32.304 204.045 32.628 203.589 32.892C203.133 33.132 202.521 33.252 201.753 33.252C201.057 33.252 200.481 33.132 200.025 32.892C199.569 32.652 199.221 32.304 198.981 31.848C198.765 31.368 198.657 30.768 198.657 30.048C198.009 31.128 197.229 31.932 196.317 32.46C195.429 32.988 194.421 33.252 193.293 33.252ZM194.589 31.812C195.381 31.812 196.113 31.584 196.785 31.128C197.481 30.672 198.105 29.988 198.657 29.076V22.02C198.369 22.428 197.949 22.776 197.397 23.064C196.845 23.328 196.245 23.604 195.597 23.892C194.949 24.156 194.325 24.48 193.725 24.864C193.149 25.224 192.669 25.704 192.285 26.304C191.901 26.904 191.709 27.684 191.709 28.644C191.709 29.604 191.961 30.372 192.465 30.948C192.993 31.524 193.701 31.812 194.589 31.812ZM211.906 8.484V14.496H217.234V15.216H211.906V29.148C211.906 30.276 212.11 31.068 212.518 31.524C212.926 31.98 213.49 32.208 214.21 32.208C214.93 32.208 215.554 31.92 216.082 31.344C216.61 30.744 217.066 29.748 217.45 28.356L218.17 28.536C217.93 29.928 217.45 31.104 216.73 32.064C216.034 33.024 214.954 33.504 213.49 33.504C212.674 33.504 212.002 33.396 211.474 33.18C210.946 32.988 210.478 32.7 210.07 32.316C209.542 31.764 209.17 31.104 208.954 30.336C208.762 29.568 208.666 28.548 208.666 27.276V15.216H205.21V14.496H208.666V8.988C209.266 8.964 209.842 8.916 210.394 8.844C210.946 8.772 211.45 8.652 211.906 8.484ZM235.181 14.064V29.112C235.181 30.192 235.373 30.996 235.757 31.524C236.165 32.028 236.885 32.28 237.917 32.28V33.036C237.173 32.964 236.429 32.928 235.685 32.928C234.989 32.928 234.317 32.964 233.669 33.036C233.045 33.108 232.469 33.24 231.941 33.432V29.184C231.341 30.744 230.489 31.86 229.385 32.532C228.305 33.18 227.189 33.504 226.037 33.504C225.197 33.504 224.465 33.384 223.841 33.144C223.217 32.904 222.701 32.568 222.293 32.136C221.837 31.656 221.525 31.032 221.357 30.264C221.189 29.496 221.105 28.548 221.105 27.42V18.384C221.105 17.304 220.913 16.512 220.529 16.008C220.145 15.48 219.425 15.216 218.369 15.216V14.46C219.137 14.532 219.881 14.568 220.601 14.568C221.297 14.568 221.957 14.532 222.581 14.46C223.229 14.364 223.817 14.232 224.345 14.064V28.212C224.345 28.956 224.393 29.64 224.489 30.264C224.585 30.888 224.825 31.392 225.209 31.776C225.593 32.16 226.217 32.352 227.081 32.352C228.017 32.352 228.845 32.064 229.565 31.488C230.309 30.912 230.885 30.132 231.293 29.148C231.725 28.164 231.941 27.06 231.941 25.836V18.384C231.941 17.304 231.749 16.512 231.365 16.008C230.981 15.48 230.261 15.216 229.205 15.216V14.46C229.973 14.532 230.717 14.568 231.437 14.568C232.133 14.568 232.793 14.532 233.417 14.46C234.065 14.364 234.653 14.232 235.181 14.064ZM250.951 13.956C251.599 13.956 252.163 14.088 252.643 14.352C253.147 14.616 253.531 14.964 253.795 15.396C254.083 15.804 254.227 16.272 254.227 16.8C254.227 17.4 254.035 17.928 253.651 18.384C253.291 18.84 252.799 19.068 252.175 19.068C251.671 19.068 251.227 18.912 250.843 18.6C250.459 18.264 250.267 17.796 250.267 17.196C250.267 16.74 250.387 16.356 250.627 16.044C250.891 15.708 251.179 15.444 251.491 15.252C251.323 15.012 251.071 14.892 250.735 14.892C249.991 14.892 249.307 15.12 248.683 15.576C248.059 16.008 247.531 16.572 247.099 17.268C246.667 17.964 246.331 18.708 246.091 19.5C245.851 20.268 245.731 20.988 245.731 21.66V29.292C245.731 30.468 246.067 31.26 246.739 31.668C247.435 32.052 248.371 32.244 249.547 32.244V33C248.995 32.976 248.215 32.952 247.207 32.928C246.199 32.88 245.131 32.856 244.003 32.856C243.187 32.856 242.371 32.88 241.555 32.928C240.763 32.952 240.163 32.976 239.755 33V32.244C240.739 32.244 241.435 32.064 241.843 31.704C242.275 31.344 242.491 30.66 242.491 29.652V18.384C242.491 17.304 242.299 16.512 241.915 16.008C241.531 15.48 240.811 15.216 239.755 15.216V14.46C240.523 14.532 241.267 14.568 241.987 14.568C242.683 14.568 243.343 14.532 243.967 14.46C244.615 14.364 245.203 14.232 245.731 14.064V18.564C245.995 17.868 246.367 17.172 246.847 16.476C247.351 15.756 247.951 15.156 248.647 14.676C249.343 14.196 250.111 13.956 250.951 13.956ZM260.898 33.252C259.914 33.252 259.062 33.072 258.342 32.712C257.622 32.328 257.07 31.8 256.686 31.128C256.326 30.456 256.146 29.676 256.146 28.788C256.146 27.732 256.386 26.868 256.866 26.196C257.37 25.524 258.006 24.984 258.774 24.576C259.542 24.168 260.346 23.832 261.186 23.568C262.05 23.28 262.866 23.016 263.634 22.776C264.402 22.512 265.026 22.212 265.506 21.876C266.01 21.54 266.262 21.096 266.262 20.544V18.312C266.262 17.304 266.106 16.536 265.794 16.008C265.506 15.48 265.11 15.132 264.606 14.964C264.102 14.772 263.538 14.676 262.914 14.676C262.314 14.676 261.666 14.76 260.97 14.928C260.298 15.096 259.758 15.444 259.35 15.972C259.806 16.068 260.202 16.308 260.538 16.692C260.874 17.076 261.042 17.568 261.042 18.168C261.042 18.768 260.85 19.248 260.466 19.608C260.082 19.944 259.59 20.112 258.99 20.112C258.294 20.112 257.778 19.896 257.442 19.464C257.13 19.008 256.974 18.504 256.974 17.952C256.974 17.328 257.13 16.824 257.442 16.44C257.754 16.056 258.15 15.696 258.63 15.36C259.182 14.976 259.89 14.652 260.754 14.388C261.642 14.1 262.638 13.956 263.742 13.956C264.726 13.956 265.566 14.076 266.262 14.316C266.958 14.532 267.534 14.856 267.99 15.288C268.614 15.864 269.022 16.572 269.214 17.412C269.406 18.228 269.502 19.212 269.502 20.364V30.372C269.502 30.972 269.586 31.404 269.754 31.668C269.946 31.932 270.234 32.064 270.618 32.064C270.882 32.064 271.134 32.004 271.374 31.884C271.614 31.764 271.902 31.572 272.238 31.308L272.634 31.92C272.13 32.304 271.65 32.628 271.194 32.892C270.738 33.132 270.126 33.252 269.358 33.252C268.662 33.252 268.086 33.132 267.63 32.892C267.174 32.652 266.826 32.304 266.586 31.848C266.37 31.368 266.262 30.768 266.262 30.048C265.614 31.128 264.834 31.932 263.922 32.46C263.034 32.988 262.026 33.252 260.898 33.252ZM262.194 31.812C262.986 31.812 263.718 31.584 264.39 31.128C265.086 30.672 265.71 29.988 266.262 29.076V22.02C265.974 22.428 265.554 22.776 265.002 23.064C264.45 23.328 263.85 23.604 263.202 23.892C262.554 24.156 261.93 24.48 261.33 24.864C260.754 25.224 260.274 25.704 259.89 26.304C259.506 26.904 259.314 27.684 259.314 28.644C259.314 29.604 259.566 30.372 260.07 30.948C260.598 31.524 261.306 31.812 262.194 31.812ZM279.44 4.776V29.652C279.44 30.66 279.644 31.344 280.052 31.704C280.484 32.064 281.192 32.244 282.176 32.244V33C281.768 32.976 281.144 32.952 280.304 32.928C279.488 32.88 278.66 32.856 277.82 32.856C277.004 32.856 276.176 32.88 275.336 32.928C274.496 32.952 273.872 32.976 273.464 33V32.244C274.448 32.244 275.144 32.064 275.552 31.704C275.984 31.344 276.2 30.66 276.2 29.652V9.096C276.2 8.016 276.008 7.224 275.624 6.72C275.24 6.192 274.52 5.928 273.464 5.928V5.172C274.232 5.244 274.976 5.28 275.696 5.28C276.392 5.28 277.052 5.244 277.676 5.172C278.324 5.076 278.912 4.944 279.44 4.776ZM290.461 13.956C291.421 13.956 292.237 14.112 292.909 14.424C293.581 14.736 294.073 15.024 294.385 15.288C295.177 15.936 295.657 15.504 295.825 13.992H296.653C296.605 14.664 296.569 15.468 296.545 16.404C296.521 17.316 296.509 18.552 296.509 20.112H295.681C295.537 19.224 295.285 18.36 294.925 17.52C294.589 16.68 294.085 15.996 293.413 15.468C292.741 14.916 291.865 14.64 290.785 14.64C289.945 14.64 289.237 14.88 288.661 15.36C288.109 15.816 287.833 16.5 287.833 17.412C287.833 18.132 288.049 18.756 288.481 19.284C288.913 19.788 289.477 20.268 290.173 20.724C290.869 21.156 291.625 21.636 292.441 22.164C293.353 22.74 294.181 23.328 294.925 23.928C295.669 24.528 296.257 25.188 296.689 25.908C297.145 26.628 297.373 27.48 297.373 28.464C297.373 29.568 297.085 30.492 296.509 31.236C295.933 31.98 295.177 32.544 294.241 32.928C293.329 33.312 292.321 33.504 291.217 33.504C290.689 33.504 290.185 33.456 289.705 33.36C289.249 33.288 288.805 33.168 288.373 33C288.133 32.88 287.881 32.736 287.617 32.568C287.377 32.4 287.137 32.22 286.897 32.028C286.657 31.836 286.441 31.848 286.249 32.064C286.057 32.256 285.913 32.652 285.817 33.252H284.989C285.037 32.484 285.073 31.548 285.097 30.444C285.121 29.34 285.133 27.876 285.133 26.052H285.961C286.129 27.396 286.369 28.572 286.681 29.58C286.993 30.588 287.485 31.38 288.157 31.956C288.829 32.508 289.765 32.784 290.965 32.784C291.445 32.784 291.925 32.676 292.405 32.46C292.909 32.244 293.329 31.884 293.665 31.38C294.001 30.876 294.169 30.204 294.169 29.364C294.169 28.308 293.785 27.444 293.017 26.772C292.249 26.1 291.277 25.392 290.101 24.648C289.237 24.096 288.421 23.544 287.653 22.992C286.909 22.44 286.297 21.816 285.817 21.12C285.361 20.424 285.133 19.584 285.133 18.6C285.133 17.52 285.373 16.644 285.853 15.972C286.357 15.276 287.017 14.772 287.833 14.46C288.649 14.124 289.525 13.956 290.461 13.956Z" fill="#DCEBD4"/>
<path d="M13.536 7.008C15.096 7.008 16.356 7.248 17.316 7.728C18.276 8.184 19.176 8.724 20.016 9.348C20.328 9.588 20.568 9.708 20.736 9.708C21.192 9.708 21.492 8.976 21.636 7.512H22.464C22.416 8.4 22.38 9.48 22.356 10.752C22.332 12.024 22.32 13.704 22.32 15.792H21.492C21.324 14.784 21.12 13.812 20.88 12.876C20.64 11.94 20.244 11.136 19.692 10.464C18.996 9.576 18.084 8.892 16.956 8.412C15.828 7.908 14.664 7.656 13.464 7.656C12.264 7.656 11.172 7.956 10.188 8.556C9.228 9.132 8.4 9.972 7.704 11.076C7.008 12.18 6.468 13.512 6.084 15.072C5.724 16.608 5.544 18.348 5.544 20.292C5.544 24.612 6.24 27.78 7.632 29.796C9.024 31.788 11.184 32.784 14.112 32.784C14.976 32.784 15.72 32.664 16.344 32.424C16.992 32.16 17.496 31.908 17.856 31.668C18.312 31.356 18.6 31.068 18.72 30.804C18.84 30.516 18.9 30.144 18.9 29.688V26.232C18.9 25.248 18.804 24.516 18.612 24.036C18.42 23.556 18.06 23.232 17.532 23.064C17.028 22.896 16.272 22.8 15.264 22.776V22.056C15.696 22.08 16.2 22.104 16.776 22.128C17.352 22.128 17.952 22.14 18.576 22.164C19.224 22.164 19.812 22.164 20.34 22.164C21.132 22.164 21.84 22.152 22.464 22.128C23.112 22.104 23.652 22.08 24.084 22.056V22.776C23.556 22.8 23.16 22.884 22.896 23.028C22.632 23.172 22.452 23.46 22.356 23.892C22.284 24.324 22.248 24.984 22.248 25.872V33H21.528C21.504 32.592 21.408 32.148 21.24 31.668C21.096 31.188 20.868 30.948 20.556 30.948C20.412 30.948 20.268 30.984 20.124 31.056C19.98 31.128 19.728 31.296 19.368 31.56C18.576 32.16 17.736 32.64 16.848 33C15.96 33.336 14.928 33.504 13.752 33.504C11.28 33.504 9.156 33 7.38 31.992C5.628 30.96 4.284 29.484 3.348 27.564C2.412 25.644 1.944 23.352 1.944 20.688C1.944 17.88 2.448 15.456 3.456 13.416C4.464 11.376 5.832 9.804 7.56 8.7C9.312 7.572 11.304 7.008 13.536 7.008ZM31.9047 4.776V29.652C31.9047 30.66 32.1087 31.344 32.5167 31.704C32.9487 32.064 33.6567 32.244 34.6407 32.244V33C34.2327 32.976 33.6087 32.952 32.7687 32.928C31.9527 32.88 31.1247 32.856 30.2847 32.856C29.4687 32.856 28.6407 32.88 27.8007 32.928C26.9607 32.952 26.3367 32.976 25.9287 33V32.244C26.9127 32.244 27.6087 32.064 28.0167 31.704C28.4487 31.344 28.6647 30.66 28.6647 29.652V9.096C28.6647 8.016 28.4727 7.224 28.0887 6.72C27.7047 6.192 26.9847 5.928 25.9287 5.928V5.172C26.6967 5.244 27.4407 5.28 28.1607 5.28C28.8567 5.28 29.5167 5.244 30.1407 5.172C30.7887 5.076 31.3767 4.944 31.9047 4.776ZM44.9499 13.956C46.4859 13.956 47.8659 14.292 49.0899 14.964C50.3139 15.636 51.2859 16.692 52.0059 18.132C52.7499 19.572 53.1219 21.444 53.1219 23.748C53.1219 26.052 52.7499 27.924 52.0059 29.364C51.2859 30.78 50.3139 31.824 49.0899 32.496C47.8659 33.168 46.4859 33.504 44.9499 33.504C43.4379 33.504 42.0579 33.168 40.8099 32.496C39.5859 31.824 38.6019 30.78 37.8579 29.364C37.1379 27.924 36.7779 26.052 36.7779 23.748C36.7779 21.444 37.1379 19.572 37.8579 18.132C38.6019 16.692 39.5859 15.636 40.8099 14.964C42.0579 14.292 43.4379 13.956 44.9499 13.956ZM44.9499 14.676C43.5819 14.676 42.4539 15.384 41.5659 16.8C40.7019 18.216 40.2699 20.532 40.2699 23.748C40.2699 26.964 40.7019 29.28 41.5659 30.696C42.4539 32.088 43.5819 32.784 44.9499 32.784C46.3179 32.784 47.4339 32.088 48.2979 30.696C49.1859 29.28 49.6299 26.964 49.6299 23.748C49.6299 20.532 49.1859 18.216 48.2979 16.8C47.4339 15.384 46.3179 14.676 44.9499 14.676ZM62.4105 14.46V15.216C61.8105 15.216 61.2825 15.264 60.8265 15.36C60.3705 15.432 60.0705 15.672 59.9265 16.08C59.7825 16.488 59.8905 17.208 60.2505 18.24L63.9945 28.968L63.7425 28.932L69.0345 14.316L69.7545 14.604L63.1665 33.18C63.0705 33.18 62.9745 33.18 62.8785 33.18C62.7825 33.18 62.6745 33.18 62.5545 33.18L56.6505 17.232C56.2665 16.272 55.8825 15.696 55.4985 15.504C55.1385 15.312 54.8265 15.216 54.5625 15.216V14.46C55.0425 14.532 55.5345 14.592 56.0385 14.64C56.5665 14.664 57.1305 14.676 57.7305 14.676C58.4745 14.676 59.2545 14.652 60.0705 14.604C60.9105 14.556 61.6905 14.508 62.4105 14.46ZM82.1745 14.46V15.18C81.7185 15.228 81.2865 15.432 80.8785 15.792C80.4945 16.128 80.1465 16.764 79.8345 17.7L74.6145 33.18C74.5185 33.18 74.4225 33.18 74.3265 33.18C74.2305 33.18 74.1225 33.18 74.0025 33.18L68.2065 18.456L69.0345 14.316C69.1785 14.316 69.3105 14.316 69.4305 14.316C69.5745 14.316 69.7185 14.316 69.8625 14.316L75.4785 29.184L75.1905 29.4L78.7545 18.564C79.0185 17.748 79.1145 17.112 79.0425 16.656C78.9945 16.176 78.7545 15.828 78.3225 15.612C77.9145 15.372 77.2785 15.228 76.4145 15.18V14.46C76.8465 14.484 77.2185 14.508 77.5305 14.532C77.8425 14.532 78.1425 14.544 78.4305 14.568C78.7425 14.568 79.0785 14.568 79.4385 14.568C79.9905 14.568 80.4825 14.556 80.9145 14.532C81.3705 14.508 81.7905 14.484 82.1745 14.46ZM91.4816 7.116C92.6816 7.116 93.5936 7.26 94.2176 7.548C94.8416 7.812 95.3936 8.112 95.8736 8.448C96.1616 8.616 96.3896 8.748 96.5576 8.844C96.7496 8.916 96.9296 8.952 97.0976 8.952C97.3376 8.952 97.5056 8.82 97.6016 8.556C97.7216 8.292 97.8176 7.896 97.8896 7.368H98.7176C98.6936 7.776 98.6576 8.268 98.6096 8.844C98.5856 9.396 98.5616 10.14 98.5376 11.076C98.5376 11.988 98.5376 13.2 98.5376 14.712H97.7096C97.6376 13.56 97.3856 12.456 96.9536 11.4C96.5216 10.344 95.8856 9.48 95.0456 8.808C94.2296 8.136 93.1496 7.8 91.8056 7.8C90.5336 7.8 89.4776 8.184 88.6376 8.952C87.8216 9.72 87.4136 10.728 87.4136 11.976C87.4136 13.056 87.6896 13.968 88.2416 14.712C88.7936 15.432 89.5256 16.092 90.4376 16.692C91.3736 17.268 92.3816 17.892 93.4616 18.564C94.7096 19.332 95.8136 20.1 96.7736 20.868C97.7576 21.612 98.5256 22.44 99.0776 23.352C99.6536 24.264 99.9416 25.368 99.9416 26.664C99.9416 28.2 99.5936 29.472 98.8976 30.48C98.2016 31.488 97.2776 32.244 96.1256 32.748C94.9736 33.252 93.7016 33.504 92.3096 33.504C91.0376 33.504 90.0296 33.36 89.2856 33.072C88.5416 32.784 87.9056 32.484 87.3776 32.172C86.8496 31.836 86.4416 31.668 86.1536 31.668C85.9136 31.668 85.7336 31.8 85.6136 32.064C85.5176 32.328 85.4336 32.724 85.3616 33.252H84.5336C84.5816 32.748 84.6056 32.16 84.6056 31.488C84.6296 30.792 84.6416 29.892 84.6416 28.788C84.6656 27.684 84.6776 26.292 84.6776 24.612H85.5056C85.6016 26.052 85.8656 27.396 86.2976 28.644C86.7536 29.892 87.4376 30.9 88.3496 31.668C89.2856 32.412 90.5216 32.784 92.0576 32.784C92.8496 32.784 93.5936 32.628 94.2896 32.316C95.0096 31.98 95.5976 31.464 96.0536 30.768C96.5096 30.048 96.7376 29.124 96.7376 27.996C96.7376 27.012 96.4976 26.16 96.0176 25.44C95.5616 24.696 94.9136 24.012 94.0736 23.388C93.2336 22.74 92.2496 22.08 91.1216 21.408C89.9936 20.712 88.9376 20.004 87.9536 19.284C86.9696 18.564 86.1776 17.736 85.5776 16.8C85.0016 15.84 84.7136 14.688 84.7136 13.344C84.7136 11.928 85.0256 10.764 85.6496 9.852C86.2976 8.916 87.1376 8.232 88.1696 7.8C89.2016 7.344 90.3056 7.116 91.4816 7.116ZM108.403 4.776V29.652C108.403 30.66 108.583 31.344 108.943 31.704C109.303 32.064 109.915 32.244 110.779 32.244V33C110.395 32.976 109.819 32.952 109.051 32.928C108.307 32.88 107.551 32.856 106.783 32.856C105.967 32.856 105.139 32.88 104.299 32.928C103.459 32.952 102.835 32.976 102.427 33V32.244C103.411 32.244 104.107 32.064 104.515 31.704C104.947 31.344 105.163 30.66 105.163 29.652V9.096C105.163 8.016 104.971 7.224 104.587 6.72C104.203 6.192 103.483 5.928 102.427 5.928V5.172C103.195 5.244 103.939 5.28 104.659 5.28C105.355 5.28 106.015 5.244 106.639 5.172C107.287 5.076 107.875 4.944 108.403 4.776ZM119.851 14.46V15.18C119.251 15.228 118.687 15.396 118.159 15.684C117.631 15.948 117.115 16.344 116.611 16.872L111.535 22.2L112.039 21.192L118.735 30.372C119.143 30.924 119.527 31.356 119.887 31.668C120.271 31.98 120.727 32.172 121.255 32.244V33C120.991 32.976 120.571 32.952 119.995 32.928C119.443 32.88 118.891 32.856 118.339 32.856C117.595 32.856 116.839 32.88 116.071 32.928C115.303 32.952 114.727 32.976 114.343 33V32.244C114.823 32.244 115.159 32.124 115.351 31.884C115.543 31.644 115.507 31.356 115.243 31.02L111.103 24.972C110.647 24.324 110.227 23.904 109.843 23.712C109.483 23.52 108.955 23.412 108.259 23.388V22.668C109.027 22.572 109.651 22.416 110.131 22.2C110.611 21.96 111.067 21.612 111.499 21.156L114.163 18.384C114.931 17.592 115.315 16.968 115.315 16.512C115.315 16.032 115.063 15.696 114.559 15.504C114.079 15.288 113.443 15.18 112.651 15.18V14.46C113.275 14.484 113.971 14.52 114.739 14.568C115.531 14.592 116.191 14.604 116.719 14.604C117.127 14.604 117.523 14.604 117.907 14.604C118.291 14.58 118.651 14.556 118.987 14.532C119.323 14.508 119.611 14.484 119.851 14.46ZM126.648 5.46C127.272 5.46 127.812 5.688 128.268 6.144C128.724 6.6 128.952 7.14 128.952 7.764C128.952 8.388 128.724 8.928 128.268 9.384C127.812 9.84 127.272 10.068 126.648 10.068C126.024 10.068 125.484 9.84 125.028 9.384C124.572 8.928 124.344 8.388 124.344 7.764C124.344 7.14 124.572 6.6 125.028 6.144C125.484 5.688 126.024 5.46 126.648 5.46ZM128.52 14.064V29.652C128.52 30.66 128.724 31.344 129.132 31.704C129.564 32.064 130.272 32.244 131.256 32.244V33C130.848 32.976 130.224 32.952 129.384 32.928C128.568 32.88 127.74 32.856 126.9 32.856C126.084 32.856 125.256 32.88 124.416 32.928C123.576 32.952 122.952 32.976 122.544 33V32.244C123.528 32.244 124.224 32.064 124.632 31.704C125.064 31.344 125.28 30.66 125.28 29.652V18.384C125.28 17.304 125.088 16.512 124.704 16.008C124.32 15.48 123.6 15.216 122.544 15.216V14.46C123.312 14.532 124.056 14.568 124.776 14.568C125.472 14.568 126.132 14.532 126.756 14.46C127.404 14.364 127.992 14.232 128.52 14.064ZM145.187 13.956C146.099 13.956 146.855 14.076 147.455 14.316C148.079 14.556 148.595 14.892 149.003 15.324C149.459 15.804 149.783 16.404 149.975 17.124C150.167 17.844 150.263 18.816 150.263 20.04V29.652C150.263 30.66 150.467 31.344 150.875 31.704C151.307 32.064 152.015 32.244 152.999 32.244V33C152.591 32.976 151.967 32.952 151.127 32.928C150.287 32.88 149.471 32.856 148.679 32.856C147.887 32.856 147.107 32.88 146.339 32.928C145.595 32.952 145.031 32.976 144.647 33V32.244C145.511 32.244 146.123 32.064 146.483 31.704C146.843 31.344 147.023 30.66 147.023 29.652V19.248C147.023 18.504 146.963 17.82 146.843 17.196C146.723 16.572 146.447 16.068 146.015 15.684C145.607 15.3 144.971 15.108 144.107 15.108C143.099 15.108 142.211 15.396 141.443 15.972C140.699 16.548 140.111 17.34 139.679 18.348C139.271 19.332 139.067 20.436 139.067 21.66V29.652C139.067 30.66 139.247 31.344 139.607 31.704C139.967 32.064 140.579 32.244 141.443 32.244V33C141.059 32.976 140.483 32.952 139.715 32.928C138.971 32.88 138.203 32.856 137.411 32.856C136.619 32.856 135.803 32.88 134.963 32.928C134.123 32.952 133.499 32.976 133.091 33V32.244C134.075 32.244 134.771 32.064 135.179 31.704C135.611 31.344 135.827 30.66 135.827 29.652V18.384C135.827 17.304 135.635 16.512 135.251 16.008C134.867 15.48 134.147 15.216 133.091 15.216V14.46C133.859 14.532 134.603 14.568 135.323 14.568C136.019 14.568 136.679 14.532 137.303 14.46C137.951 14.364 138.539 14.232 139.067 14.064V18.312C139.691 16.68 140.555 15.552 141.659 14.928C142.787 14.28 143.963 13.956 145.187 13.956ZM186.612 7.512V8.232C185.796 8.256 185.172 8.376 184.74 8.592C184.332 8.808 184.056 9.156 183.912 9.636C183.768 10.116 183.696 10.8 183.696 11.688V33.18C183.552 33.18 183.408 33.18 183.264 33.18C183.144 33.18 183.012 33.18 182.868 33.18L167.748 9.816V28.824C167.748 29.688 167.82 30.372 167.964 30.876C168.132 31.356 168.444 31.704 168.9 31.92C169.38 32.112 170.088 32.232 171.024 32.28V33C170.592 32.952 170.028 32.928 169.332 32.928C168.636 32.904 167.976 32.892 167.352 32.892C166.752 32.892 166.14 32.904 165.516 32.928C164.916 32.928 164.412 32.952 164.004 33V32.28C164.82 32.232 165.432 32.112 165.84 31.92C166.272 31.704 166.56 31.356 166.704 30.876C166.848 30.372 166.92 29.688 166.92 28.824V11.328C166.92 10.44 166.848 9.792 166.704 9.384C166.56 8.952 166.272 8.664 165.84 8.52C165.432 8.352 164.82 8.256 164.004 8.232V7.512C164.412 7.536 164.916 7.56 165.516 7.584C166.14 7.608 166.752 7.62 167.352 7.62C167.88 7.62 168.384 7.608 168.864 7.584C169.344 7.56 169.776 7.536 170.16 7.512L182.868 27.096V11.688C182.868 10.8 182.784 10.116 182.616 9.636C182.472 9.156 182.16 8.808 181.68 8.592C181.224 8.376 180.528 8.256 179.592 8.232V7.512C180.024 7.536 180.588 7.56 181.284 7.584C182.004 7.608 182.664 7.62 183.264 7.62C183.888 7.62 184.5 7.608 185.1 7.584C185.724 7.56 186.228 7.536 186.612 7.512ZM193.293 33.252C192.309 33.252 191.457 33.072 190.737 32.712C190.017 32.328 189.465 31.8 189.081 31.128C188.721 30.456 188.541 29.676 188.541 28.788C188.541 27.732 188.781 26.868 189.261 26.196C189.765 25.524 190.401 24.984 191.169 24.576C191.937 24.168 192.741 23.832 193.581 23.568C194.445 23.28 195.261 23.016 196.029 22.776C196.797 22.512 197.421 22.212 197.901 21.876C198.405 21.54 198.657 21.096 198.657 20.544V18.312C198.657 17.304 198.501 16.536 198.189 16.008C197.901 15.48 197.505 15.132 197.001 14.964C196.497 14.772 195.933 14.676 195.309 14.676C194.709 14.676 194.061 14.76 193.365 14.928C192.693 15.096 192.153 15.444 191.745 15.972C192.201 16.068 192.597 16.308 192.933 16.692C193.269 17.076 193.437 17.568 193.437 18.168C193.437 18.768 193.245 19.248 192.861 19.608C192.477 19.944 191.985 20.112 191.385 20.112C190.689 20.112 190.173 19.896 189.837 19.464C189.525 19.008 189.369 18.504 189.369 17.952C189.369 17.328 189.525 16.824 189.837 16.44C190.149 16.056 190.545 15.696 191.025 15.36C191.577 14.976 192.285 14.652 193.149 14.388C194.037 14.1 195.033 13.956 196.137 13.956C197.121 13.956 197.961 14.076 198.657 14.316C199.353 14.532 199.929 14.856 200.385 15.288C201.009 15.864 201.417 16.572 201.609 17.412C201.801 18.228 201.897 19.212 201.897 20.364V30.372C201.897 30.972 201.981 31.404 202.149 31.668C202.341 31.932 202.629 32.064 203.013 32.064C203.277 32.064 203.529 32.004 203.769 31.884C204.009 31.764 204.297 31.572 204.633 31.308L205.029 31.92C204.525 32.304 204.045 32.628 203.589 32.892C203.133 33.132 202.521 33.252 201.753 33.252C201.057 33.252 200.481 33.132 200.025 32.892C199.569 32.652 199.221 32.304 198.981 31.848C198.765 31.368 198.657 30.768 198.657 30.048C198.009 31.128 197.229 31.932 196.317 32.46C195.429 32.988 194.421 33.252 193.293 33.252ZM194.589 31.812C195.381 31.812 196.113 31.584 196.785 31.128C197.481 30.672 198.105 29.988 198.657 29.076V22.02C198.369 22.428 197.949 22.776 197.397 23.064C196.845 23.328 196.245 23.604 195.597 23.892C194.949 24.156 194.325 24.48 193.725 24.864C193.149 25.224 192.669 25.704 192.285 26.304C191.901 26.904 191.709 27.684 191.709 28.644C191.709 29.604 191.961 30.372 192.465 30.948C192.993 31.524 193.701 31.812 194.589 31.812ZM211.906 8.484V14.496H217.234V15.216H211.906V29.148C211.906 30.276 212.11 31.068 212.518 31.524C212.926 31.98 213.49 32.208 214.21 32.208C214.93 32.208 215.554 31.92 216.082 31.344C216.61 30.744 217.066 29.748 217.45 28.356L218.17 28.536C217.93 29.928 217.45 31.104 216.73 32.064C216.034 33.024 214.954 33.504 213.49 33.504C212.674 33.504 212.002 33.396 211.474 33.18C210.946 32.988 210.478 32.7 210.07 32.316C209.542 31.764 209.17 31.104 208.954 30.336C208.762 29.568 208.666 28.548 208.666 27.276V15.216H205.21V14.496H208.666V8.988C209.266 8.964 209.842 8.916 210.394 8.844C210.946 8.772 211.45 8.652 211.906 8.484ZM235.181 14.064V29.112C235.181 30.192 235.373 30.996 235.757 31.524C236.165 32.028 236.885 32.28 237.917 32.28V33.036C237.173 32.964 236.429 32.928 235.685 32.928C234.989 32.928 234.317 32.964 233.669 33.036C233.045 33.108 232.469 33.24 231.941 33.432V29.184C231.341 30.744 230.489 31.86 229.385 32.532C228.305 33.18 227.189 33.504 226.037 33.504C225.197 33.504 224.465 33.384 223.841 33.144C223.217 32.904 222.701 32.568 222.293 32.136C221.837 31.656 221.525 31.032 221.357 30.264C221.189 29.496 221.105 28.548 221.105 27.42V18.384C221.105 17.304 220.913 16.512 220.529 16.008C220.145 15.48 219.425 15.216 218.369 15.216V14.46C219.137 14.532 219.881 14.568 220.601 14.568C221.297 14.568 221.957 14.532 222.581 14.46C223.229 14.364 223.817 14.232 224.345 14.064V28.212C224.345 28.956 224.393 29.64 224.489 30.264C224.585 30.888 224.825 31.392 225.209 31.776C225.593 32.16 226.217 32.352 227.081 32.352C228.017 32.352 228.845 32.064 229.565 31.488C230.309 30.912 230.885 30.132 231.293 29.148C231.725 28.164 231.941 27.06 231.941 25.836V18.384C231.941 17.304 231.749 16.512 231.365 16.008C230.981 15.48 230.261 15.216 229.205 15.216V14.46C229.973 14.532 230.717 14.568 231.437 14.568C232.133 14.568 232.793 14.532 233.417 14.46C234.065 14.364 234.653 14.232 235.181 14.064ZM250.951 13.956C251.599 13.956 252.163 14.088 252.643 14.352C253.147 14.616 253.531 14.964 253.795 15.396C254.083 15.804 254.227 16.272 254.227 16.8C254.227 17.4 254.035 17.928 253.651 18.384C253.291 18.84 252.799 19.068 252.175 19.068C251.671 19.068 251.227 18.912 250.843 18.6C250.459 18.264 250.267 17.796 250.267 17.196C250.267 16.74 250.387 16.356 250.627 16.044C250.891 15.708 251.179 15.444 251.491 15.252C251.323 15.012 251.071 14.892 250.735 14.892C249.991 14.892 249.307 15.12 248.683 15.576C248.059 16.008 247.531 16.572 247.099 17.268C246.667 17.964 246.331 18.708 246.091 19.5C245.851 20.268 245.731 20.988 245.731 21.66V29.292C245.731 30.468 246.067 31.26 246.739 31.668C247.435 32.052 248.371 32.244 249.547 32.244V33C248.995 32.976 248.215 32.952 247.207 32.928C246.199 32.88 245.131 32.856 244.003 32.856C243.187 32.856 242.371 32.88 241.555 32.928C240.763 32.952 240.163 32.976 239.755 33V32.244C240.739 32.244 241.435 32.064 241.843 31.704C242.275 31.344 242.491 30.66 242.491 29.652V18.384C242.491 17.304 242.299 16.512 241.915 16.008C241.531 15.48 240.811 15.216 239.755 15.216V14.46C240.523 14.532 241.267 14.568 241.987 14.568C242.683 14.568 243.343 14.532 243.967 14.46C244.615 14.364 245.203 14.232 245.731 14.064V18.564C245.995 17.868 246.367 17.172 246.847 16.476C247.351 15.756 247.951 15.156 248.647 14.676C249.343 14.196 250.111 13.956 250.951 13.956ZM260.898 33.252C259.914 33.252 259.062 33.072 258.342 32.712C257.622 32.328 257.07 31.8 256.686 31.128C256.326 30.456 256.146 29.676 256.146 28.788C256.146 27.732 256.386 26.868 256.866 26.196C257.37 25.524 258.006 24.984 258.774 24.576C259.542 24.168 260.346 23.832 261.186 23.568C262.05 23.28 262.866 23.016 263.634 22.776C264.402 22.512 265.026 22.212 265.506 21.876C266.01 21.54 266.262 21.096 266.262 20.544V18.312C266.262 17.304 266.106 16.536 265.794 16.008C265.506 15.48 265.11 15.132 264.606 14.964C264.102 14.772 263.538 14.676 262.914 14.676C262.314 14.676 261.666 14.76 260.97 14.928C260.298 15.096 259.758 15.444 259.35 15.972C259.806 16.068 260.202 16.308 260.538 16.692C260.874 17.076 261.042 17.568 261.042 18.168C261.042 18.768 260.85 19.248 260.466 19.608C260.082 19.944 259.59 20.112 258.99 20.112C258.294 20.112 257.778 19.896 257.442 19.464C257.13 19.008 256.974 18.504 256.974 17.952C256.974 17.328 257.13 16.824 257.442 16.44C257.754 16.056 258.15 15.696 258.63 15.36C259.182 14.976 259.89 14.652 260.754 14.388C261.642 14.1 262.638 13.956 263.742 13.956C264.726 13.956 265.566 14.076 266.262 14.316C266.958 14.532 267.534 14.856 267.99 15.288C268.614 15.864 269.022 16.572 269.214 17.412C269.406 18.228 269.502 19.212 269.502 20.364V30.372C269.502 30.972 269.586 31.404 269.754 31.668C269.946 31.932 270.234 32.064 270.618 32.064C270.882 32.064 271.134 32.004 271.374 31.884C271.614 31.764 271.902 31.572 272.238 31.308L272.634 31.92C272.13 32.304 271.65 32.628 271.194 32.892C270.738 33.132 270.126 33.252 269.358 33.252C268.662 33.252 268.086 33.132 267.63 32.892C267.174 32.652 266.826 32.304 266.586 31.848C266.37 31.368 266.262 30.768 266.262 30.048C265.614 31.128 264.834 31.932 263.922 32.46C263.034 32.988 262.026 33.252 260.898 33.252ZM262.194 31.812C262.986 31.812 263.718 31.584 264.39 31.128C265.086 30.672 265.71 29.988 266.262 29.076V22.02C265.974 22.428 265.554 22.776 265.002 23.064C264.45 23.328 263.85 23.604 263.202 23.892C262.554 24.156 261.93 24.48 261.33 24.864C260.754 25.224 260.274 25.704 259.89 26.304C259.506 26.904 259.314 27.684 259.314 28.644C259.314 29.604 259.566 30.372 260.07 30.948C260.598 31.524 261.306 31.812 262.194 31.812ZM279.44 4.776V29.652C279.44 30.66 279.644 31.344 280.052 31.704C280.484 32.064 281.192 32.244 282.176 32.244V33C281.768 32.976 281.144 32.952 280.304 32.928C279.488 32.88 278.66 32.856 277.82 32.856C277.004 32.856 276.176 32.88 275.336 32.928C274.496 32.952 273.872 32.976 273.464 33V32.244C274.448 32.244 275.144 32.064 275.552 31.704C275.984 31.344 276.2 30.66 276.2 29.652V9.096C276.2 8.016 276.008 7.224 275.624 6.72C275.24 6.192 274.52 5.928 273.464 5.928V5.172C274.232 5.244 274.976 5.28 275.696 5.28C276.392 5.28 277.052 5.244 277.676 5.172C278.324 5.076 278.912 4.944 279.44 4.776ZM290.461 13.956C291.421 13.956 292.237 14.112 292.909 14.424C293.581 14.736 294.073 15.024 294.385 15.288C295.177 15.936 295.657 15.504 295.825 13.992H296.653C296.605 14.664 296.569 15.468 296.545 16.404C296.521 17.316 296.509 18.552 296.509 20.112H295.681C295.537 19.224 295.285 18.36 294.925 17.52C294.589 16.68 294.085 15.996 293.413 15.468C292.741 14.916 291.865 14.64 290.785 14.64C289.945 14.64 289.237 14.88 288.661 15.36C288.109 15.816 287.833 16.5 287.833 17.412C287.833 18.132 288.049 18.756 288.481 19.284C288.913 19.788 289.477 20.268 290.173 20.724C290.869 21.156 291.625 21.636 292.441 22.164C293.353 22.74 294.181 23.328 294.925 23.928C295.669 24.528 296.257 25.188 296.689 25.908C297.145 26.628 297.373 27.48 297.373 28.464C297.373 29.568 297.085 30.492 296.509 31.236C295.933 31.98 295.177 32.544 294.241 32.928C293.329 33.312 292.321 33.504 291.217 33.504C290.689 33.504 290.185 33.456 289.705 33.36C289.249 33.288 288.805 33.168 288.373 33C288.133 32.88 287.881 32.736 287.617 32.568C287.377 32.4 287.137 32.22 286.897 32.028C286.657 31.836 286.441 31.848 286.249 32.064C286.057 32.256 285.913 32.652 285.817 33.252H284.989C285.037 32.484 285.073 31.548 285.097 30.444C285.121 29.34 285.133 27.876 285.133 26.052H285.961C286.129 27.396 286.369 28.572 286.681 29.58C286.993 30.588 287.485 31.38 288.157 31.956C288.829 32.508 289.765 32.784 290.965 32.784C291.445 32.784 291.925 32.676 292.405 32.46C292.909 32.244 293.329 31.884 293.665 31.38C294.001 30.876 294.169 30.204 294.169 29.364C294.169 28.308 293.785 27.444 293.017 26.772C292.249 26.1 291.277 25.392 290.101 24.648C289.237 24.096 288.421 23.544 287.653 22.992C286.909 22.44 286.297 21.816 285.817 21.12C285.361 20.424 285.133 19.584 285.133 18.6C285.133 17.52 285.373 16.644 285.853 15.972C286.357 15.276 287.017 14.772 287.833 14.46C288.649 14.124 289.525 13.956 290.461 13.956Z" fill="black" fill-opacity="0.2"/>
<path d="M12.54 45.04C12.54 46.24 12.1467 47.2067 11.36 47.94C10.5733 48.6733 9.39333 49.04 7.82 49.04H5V55H3.6V41.02H7.82C9.38 41.02 10.5533 41.3867 11.34 42.12C12.14 42.8533 12.54 43.8267 12.54 45.04ZM7.82 47.84C10.0067 47.84 11.1 46.9067 11.1 45.04C11.1 44.1067 10.84 43.4 10.32 42.92C9.8 42.44 8.96667 42.2 7.82 42.2H5V47.84H7.82ZM25.5491 44.08V55H24.1491V53.08C23.8291 53.76 23.3357 54.28 22.6691 54.64C22.0024 55 21.2557 55.18 20.4291 55.18C19.1224 55.18 18.0557 54.78 17.2291 53.98C16.4024 53.1667 15.9891 51.9933 15.9891 50.46V44.08H17.3691V50.3C17.3691 51.4867 17.6624 52.3933 18.2491 53.02C18.8491 53.6467 19.6624 53.96 20.6891 53.96C21.7424 53.96 22.5824 53.6267 23.2091 52.96C23.8357 52.2933 24.1491 51.3133 24.1491 50.02V44.08H25.5491ZM31.3453 46.02C31.652 45.34 32.1186 44.8133 32.7453 44.44C33.3853 44.0667 34.1653 43.88 35.0853 43.88V45.34H34.7053C33.692 45.34 32.8786 45.6133 32.2653 46.16C31.652 46.7067 31.3453 47.62 31.3453 48.9V55H29.9453V44.08H31.3453V46.02ZM48.2714 48.98C48.2714 49.46 48.2581 49.8267 48.2314 50.08H39.1714C39.2114 50.9067 39.4114 51.6133 39.7714 52.2C40.1314 52.7867 40.6047 53.2333 41.1914 53.54C41.7781 53.8333 42.4181 53.98 43.1114 53.98C44.0181 53.98 44.7781 53.76 45.3914 53.32C46.0181 52.88 46.4314 52.2867 46.6314 51.54H48.1114C47.8447 52.6067 47.2714 53.48 46.3914 54.16C45.5247 54.8267 44.4314 55.16 43.1114 55.16C42.0847 55.16 41.1647 54.9333 40.3514 54.48C39.5381 54.0133 38.8981 53.36 38.4314 52.52C37.9781 51.6667 37.7514 50.6733 37.7514 49.54C37.7514 48.4067 37.9781 47.4133 38.4314 46.56C38.8847 45.7067 39.5181 45.0533 40.3314 44.6C41.1447 44.1467 42.0714 43.92 43.1114 43.92C44.1514 43.92 45.0581 44.1467 45.8314 44.6C46.6181 45.0533 47.2181 45.6667 47.6314 46.44C48.0581 47.2 48.2714 48.0467 48.2714 48.98ZM46.8514 48.94C46.8647 48.1267 46.6981 47.4333 46.3514 46.86C46.0181 46.2867 45.5581 45.8533 44.9714 45.56C44.3847 45.2667 43.7447 45.12 43.0514 45.12C42.0114 45.12 41.1247 45.4533 40.3914 46.12C39.6581 46.7867 39.2514 47.7267 39.1714 48.94H46.8514ZM69.2611 55H67.8611L60.1211 43.24V55H58.7211V41.02H60.1211L67.8611 52.76V41.02H69.2611V55ZM72.992 49.52C72.992 48.4 73.212 47.42 73.652 46.58C74.1054 45.7267 74.7254 45.0733 75.512 44.62C76.312 44.1533 77.212 43.92 78.212 43.92C79.252 43.92 80.1454 44.16 80.892 44.64C81.652 45.12 82.1987 45.7333 82.532 46.48V44.08H83.932V55H82.532V52.58C82.1854 53.3267 81.632 53.9467 80.872 54.44C80.1254 54.92 79.232 55.16 78.192 55.16C77.2054 55.16 76.312 54.9267 75.512 54.46C74.7254 53.9933 74.1054 53.3333 73.652 52.48C73.212 51.6267 72.992 50.64 72.992 49.52ZM82.532 49.54C82.532 48.66 82.352 47.8867 81.992 47.22C81.632 46.5533 81.1387 46.04 80.512 45.68C79.8987 45.32 79.2187 45.14 78.472 45.14C77.6987 45.14 77.0054 45.3133 76.392 45.66C75.7787 46.0067 75.292 46.5133 74.932 47.18C74.5854 47.8333 74.412 48.6133 74.412 49.52C74.412 50.4133 74.5854 51.2 74.932 51.88C75.292 52.5467 75.7787 53.06 76.392 53.42C77.0054 53.7667 77.6987 53.94 78.472 53.94C79.2187 53.94 79.8987 53.76 80.512 53.4C81.1387 53.04 81.632 52.5267 81.992 51.86C82.352 51.1933 82.532 50.42 82.532 49.54ZM90.1481 45.26V52.04C90.1481 52.7067 90.2748 53.1667 90.5281 53.42C90.7815 53.6733 91.2281 53.8 91.8681 53.8H93.1481V55H91.6481C90.6615 55 89.9281 54.7733 89.4481 54.32C88.9681 53.8533 88.7281 53.0933 88.7281 52.04V45.26H87.2081V44.08H88.7281V41.34H90.1481V44.08H93.1481V45.26H90.1481ZM106.117 44.08V55H104.717V53.08C104.397 53.76 103.904 54.28 103.237 54.64C102.57 55 101.824 55.18 100.997 55.18C99.6904 55.18 98.6237 54.78 97.797 53.98C96.9704 53.1667 96.557 51.9933 96.557 50.46V44.08H97.937V50.3C97.937 51.4867 98.2304 52.3933 98.817 53.02C99.417 53.6467 100.23 53.96 101.257 53.96C102.31 53.96 103.15 53.6267 103.777 52.96C104.404 52.2933 104.717 51.3133 104.717 50.02V44.08H106.117ZM111.913 46.02C112.22 45.34 112.687 44.8133 113.313 44.44C113.953 44.0667 114.733 43.88 115.653 43.88V45.34H115.273C114.26 45.34 113.447 45.6133 112.833 46.16C112.22 46.7067 111.913 47.62 111.913 48.9V55H110.513V44.08H111.913V46.02ZM128.839 48.98C128.839 49.46 128.826 49.8267 128.799 50.08H119.739C119.779 50.9067 119.979 51.6133 120.339 52.2C120.699 52.7867 121.173 53.2333 121.759 53.54C122.346 53.8333 122.986 53.98 123.679 53.98C124.586 53.98 125.346 53.76 125.959 53.32C126.586 52.88 126.999 52.2867 127.199 51.54H128.679C128.413 52.6067 127.839 53.48 126.959 54.16C126.093 54.8267 124.999 55.16 123.679 55.16C122.653 55.16 121.733 54.9333 120.919 54.48C120.106 54.0133 119.466 53.36 118.999 52.52C118.546 51.6667 118.319 50.6733 118.319 49.54C118.319 48.4067 118.546 47.4133 118.999 46.56C119.453 45.7067 120.086 45.0533 120.899 44.6C121.713 44.1467 122.639 43.92 123.679 43.92C124.719 43.92 125.626 44.1467 126.399 44.6C127.186 45.0533 127.786 45.6667 128.199 46.44C128.626 47.2 128.839 48.0467 128.839 48.98ZM127.419 48.94C127.433 48.1267 127.266 47.4333 126.919 46.86C126.586 46.2867 126.126 45.8533 125.539 45.56C124.953 45.2667 124.313 45.12 123.619 45.12C122.579 45.12 121.693 45.4533 120.959 46.12C120.226 46.7867 119.819 47.7267 119.739 48.94H127.419ZM132.841 55.1C132.547 55.1 132.301 55 132.101 54.8C131.914 54.6 131.821 54.3533 131.821 54.06C131.821 53.7667 131.914 53.5267 132.101 53.34C132.301 53.14 132.547 53.04 132.841 53.04C133.121 53.04 133.354 53.14 133.541 53.34C133.741 53.5267 133.841 53.7667 133.841 54.06C133.841 54.3533 133.741 54.6 133.541 54.8C133.354 55 133.121 55.1 132.841 55.1ZM174.567 41.02V55H173.167V48.46H165.587V55H164.187V41.02H165.587V47.3H173.167V41.02H174.567ZM188.841 48.98C188.841 49.46 188.828 49.8267 188.801 50.08H179.741C179.781 50.9067 179.981 51.6133 180.341 52.2C180.701 52.7867 181.174 53.2333 181.761 53.54C182.348 53.8333 182.988 53.98 183.681 53.98C184.588 53.98 185.348 53.76 185.961 53.32C186.588 52.88 187.001 52.2867 187.201 51.54H188.681C188.414 52.6067 187.841 53.48 186.961 54.16C186.094 54.8267 185.001 55.16 183.681 55.16C182.654 55.16 181.734 54.9333 180.921 54.48C180.108 54.0133 179.468 53.36 179.001 52.52C178.548 51.6667 178.321 50.6733 178.321 49.54C178.321 48.4067 178.548 47.4133 179.001 46.56C179.454 45.7067 180.088 45.0533 180.901 44.6C181.714 44.1467 182.641 43.92 183.681 43.92C184.721 43.92 185.628 44.1467 186.401 44.6C187.188 45.0533 187.788 45.6667 188.201 46.44C188.628 47.2 188.841 48.0467 188.841 48.98ZM187.421 48.94C187.434 48.1267 187.268 47.4333 186.921 46.86C186.588 46.2867 186.128 45.8533 185.541 45.56C184.954 45.2667 184.314 45.12 183.621 45.12C182.581 45.12 181.694 45.4533 180.961 46.12C180.228 46.7867 179.821 47.7267 179.741 48.94H187.421ZM191.962 49.52C191.962 48.4 192.182 47.42 192.622 46.58C193.076 45.7267 193.696 45.0733 194.482 44.62C195.282 44.1533 196.182 43.92 197.182 43.92C198.222 43.92 199.116 44.16 199.862 44.64C200.622 45.12 201.169 45.7333 201.502 46.48V44.08H202.902V55H201.502V52.58C201.156 53.3267 200.602 53.9467 199.842 54.44C199.096 54.92 198.202 55.16 197.162 55.16C196.176 55.16 195.282 54.9267 194.482 54.46C193.696 53.9933 193.076 53.3333 192.622 52.48C192.182 51.6267 191.962 50.64 191.962 49.52ZM201.502 49.54C201.502 48.66 201.322 47.8867 200.962 47.22C200.602 46.5533 200.109 46.04 199.482 45.68C198.869 45.32 198.189 45.14 197.442 45.14C196.669 45.14 195.976 45.3133 195.362 45.66C194.749 46.0067 194.262 46.5133 193.902 47.18C193.556 47.8333 193.382 48.6133 193.382 49.52C193.382 50.4133 193.556 51.2 193.902 51.88C194.262 52.5467 194.749 53.06 195.362 53.42C195.976 53.7667 196.669 53.94 197.442 53.94C198.189 53.94 198.869 53.76 199.482 53.4C200.109 53.04 200.602 52.5267 200.962 51.86C201.322 51.1933 201.502 50.42 201.502 49.54ZM208.698 40.2V55H207.298V40.2H208.698ZM214.889 45.26V52.04C214.889 52.7067 215.015 53.1667 215.269 53.42C215.522 53.6733 215.969 53.8 216.609 53.8H217.889V55H216.389C215.402 55 214.669 54.7733 214.189 54.32C213.709 53.8533 213.469 53.0933 213.469 52.04V45.26H211.949V44.08H213.469V41.34H214.889V44.08H217.889V45.26H214.889ZM226.598 43.88C227.424 43.88 228.164 44.0533 228.818 44.4C229.484 44.7467 230.004 45.28 230.378 46C230.764 46.7067 230.958 47.5733 230.958 48.6V55H229.578V48.76C229.578 47.5733 229.278 46.6667 228.678 46.04C228.091 45.4133 227.284 45.1 226.258 45.1C225.204 45.1 224.364 45.4333 223.738 46.1C223.111 46.7667 222.798 47.7467 222.798 49.04V55H221.398V40.2H222.798V45.94C223.144 45.2867 223.651 44.78 224.318 44.42C224.998 44.06 225.758 43.88 226.598 43.88ZM244.254 44.08L237.774 60.14H236.314L238.434 54.94L233.954 44.08H235.494L239.214 53.4L242.814 44.08H244.254ZM265.041 45.1C264.641 44.18 264.027 43.46 263.201 42.94C262.387 42.4067 261.427 42.14 260.321 42.14C259.281 42.14 258.347 42.38 257.521 42.86C256.694 43.34 256.041 44.0267 255.561 44.92C255.081 45.8 254.841 46.8267 254.841 48C254.841 49.1733 255.081 50.2067 255.561 51.1C256.041 51.9933 256.694 52.68 257.521 53.16C258.347 53.64 259.281 53.88 260.321 53.88C261.294 53.88 262.167 53.6733 262.941 53.26C263.727 52.8333 264.354 52.2333 264.821 51.46C265.301 50.6733 265.574 49.76 265.641 48.72H259.761V47.58H267.121V48.6C267.054 49.8267 266.721 50.94 266.121 51.94C265.521 52.9267 264.714 53.7067 263.701 54.28C262.701 54.8533 261.574 55.14 260.321 55.14C259.027 55.14 257.854 54.84 256.801 54.24C255.747 53.6267 254.914 52.78 254.301 51.7C253.701 50.6067 253.401 49.3733 253.401 48C253.401 46.6267 253.701 45.4 254.301 44.32C254.914 43.2267 255.747 42.38 256.801 41.78C257.854 41.1667 259.027 40.86 260.321 40.86C261.814 40.86 263.121 41.2333 264.241 41.98C265.361 42.7267 266.174 43.7667 266.681 45.1H265.041ZM272.285 40.2V55H270.885V40.2H272.285ZM281.435 55.16C280.409 55.16 279.482 54.9333 278.655 54.48C277.842 54.0133 277.195 53.36 276.715 52.52C276.249 51.6667 276.015 50.6733 276.015 49.54C276.015 48.4067 276.255 47.42 276.735 46.58C277.215 45.7267 277.869 45.0733 278.695 44.62C279.522 44.1533 280.449 43.92 281.475 43.92C282.502 43.92 283.429 44.1533 284.255 44.62C285.095 45.0733 285.749 45.7267 286.215 46.58C286.695 47.42 286.935 48.4067 286.935 49.54C286.935 50.66 286.695 51.6467 286.215 52.5C285.735 53.3533 285.075 54.0133 284.235 54.48C283.395 54.9333 282.462 55.16 281.435 55.16ZM281.435 53.94C282.155 53.94 282.822 53.78 283.435 53.46C284.049 53.1267 284.542 52.6333 284.915 51.98C285.302 51.3133 285.495 50.5 285.495 49.54C285.495 48.58 285.309 47.7733 284.935 47.12C284.562 46.4533 284.069 45.96 283.455 45.64C282.842 45.3067 282.175 45.14 281.455 45.14C280.735 45.14 280.069 45.3067 279.455 45.64C278.842 45.96 278.349 46.4533 277.975 47.12C277.615 47.7733 277.435 48.58 277.435 49.54C277.435 50.5 277.615 51.3133 277.975 51.98C278.349 52.6333 278.835 53.1267 279.435 53.46C280.049 53.78 280.715 53.94 281.435 53.94ZM305.087 44.08L301.667 55H300.267L297.247 45.84L294.227 55H292.807L289.387 44.08H290.807L293.527 53.58L296.587 44.08H297.987L301.007 53.6L303.707 44.08H305.087ZM308.436 55.1C308.143 55.1 307.896 55 307.696 54.8C307.509 54.6 307.416 54.3533 307.416 54.06C307.416 53.7667 307.509 53.5267 307.696 53.34C307.896 53.14 308.143 53.04 308.436 53.04C308.716 53.04 308.949 53.14 309.136 53.34C309.336 53.5267 309.436 53.7667 309.436 54.06C309.436 54.3533 309.336 54.6 309.136 54.8C308.949 55 308.716 55.1 308.436 55.1Z" fill="white"/>
</svg>
